<svg xmlns="http://www.w3.org/2000/svg" viewBox="0 0 24 30" x="0px" y="0px"><path d="M22,11.375v-2a2,2,0,0,0-2-2H17.75v-2A2.7528,2.7528,0,0,0,15,2.625H9a2.7528,2.7528,0,0,0-2.75,2.75v2H4a2,2,0,0,0-2,2v2l10,4Zm-14.25-6A1.2511,1.2511,0,0,1,9,4.125h6a1.2511,1.2511,0,0,1,1.25,1.25v2H7.75ZM2,19.375V12.9907l10,4,10-4V19.375a2,2,0,0,1-2,2H4A2,2,0,0,1,2,19.375Z"/><text x="0" y="39" fill="#000000" font-size="5px" font-weight="bold" font-family="'Helvetica Neue', Helvetica, Arial-Unicode, Arial, Sans-serif">Created by Royyan Wijaya</text><text x="0" y="44" fill="#000000" font-size="5px" font-weight="bold" font-family="'Helvetica Neue', Helvetica, Arial-Unicode, Arial, Sans-serif">from the Noun Project</text></svg>